<mxfile host="Electron" modified="2023-05-12T08:07:09.050Z" agent="Mozilla/5.0 (Windows NT 10.0; Win64; x64) AppleWebKit/537.36 (KHTML, like Gecko) draw.io/21.2.8 Chrome/112.0.5615.165 Electron/24.2.0 Safari/537.36" etag="btq-IwLfyHC3QtjIbdAm" version="21.2.8" type="device">
  <diagram name="Page-1" id="ho1uY59gXptZtSajObo-">
    <mxGraphModel dx="1036" dy="654" grid="1" gridSize="10" guides="1" tooltips="1" connect="1" arrows="1" fold="1" page="1" pageScale="1" pageWidth="850" pageHeight="1100" math="0" shadow="0">
      <root>
        <mxCell id="0" />
        <mxCell id="1" parent="0" />
        <mxCell id="ydtsIiDGhrV2X_qzVOJo-8" style="edgeStyle=orthogonalEdgeStyle;rounded=0;orthogonalLoop=1;jettySize=auto;html=1;entryX=0;entryY=0.5;entryDx=0;entryDy=0;" edge="1" parent="1" source="ydtsIiDGhrV2X_qzVOJo-1" target="ydtsIiDGhrV2X_qzVOJo-3">
          <mxGeometry relative="1" as="geometry" />
        </mxCell>
        <mxCell id="ydtsIiDGhrV2X_qzVOJo-1" value="Sensor Suhu&lt;br&gt;(DS18B20)" style="rounded=0;whiteSpace=wrap;html=1;" vertex="1" parent="1">
          <mxGeometry x="200" y="275" width="120" height="60" as="geometry" />
        </mxCell>
        <mxCell id="ydtsIiDGhrV2X_qzVOJo-11" style="edgeStyle=orthogonalEdgeStyle;rounded=0;orthogonalLoop=1;jettySize=auto;html=1;entryX=0;entryY=0.5;entryDx=0;entryDy=0;" edge="1" parent="1" source="ydtsIiDGhrV2X_qzVOJo-3" target="ydtsIiDGhrV2X_qzVOJo-10">
          <mxGeometry relative="1" as="geometry" />
        </mxCell>
        <mxCell id="ydtsIiDGhrV2X_qzVOJo-12" style="edgeStyle=orthogonalEdgeStyle;rounded=0;orthogonalLoop=1;jettySize=auto;html=1;entryX=0;entryY=0.5;entryDx=0;entryDy=0;" edge="1" parent="1" source="ydtsIiDGhrV2X_qzVOJo-3" target="ydtsIiDGhrV2X_qzVOJo-9">
          <mxGeometry relative="1" as="geometry" />
        </mxCell>
        <mxCell id="ydtsIiDGhrV2X_qzVOJo-3" value="STM8L051F3P6&amp;nbsp;" style="rounded=0;whiteSpace=wrap;html=1;fontStyle=1" vertex="1" parent="1">
          <mxGeometry x="360" y="230" width="120" height="150" as="geometry" />
        </mxCell>
        <mxCell id="ydtsIiDGhrV2X_qzVOJo-7" style="edgeStyle=orthogonalEdgeStyle;rounded=0;orthogonalLoop=1;jettySize=auto;html=1;entryX=0.5;entryY=1;entryDx=0;entryDy=0;" edge="1" parent="1" source="ydtsIiDGhrV2X_qzVOJo-4" target="ydtsIiDGhrV2X_qzVOJo-3">
          <mxGeometry relative="1" as="geometry" />
        </mxCell>
        <mxCell id="ydtsIiDGhrV2X_qzVOJo-4" value="3.3V Regulator" style="rounded=0;whiteSpace=wrap;html=1;" vertex="1" parent="1">
          <mxGeometry x="360" y="410" width="120" height="60" as="geometry" />
        </mxCell>
        <mxCell id="ydtsIiDGhrV2X_qzVOJo-6" style="edgeStyle=orthogonalEdgeStyle;rounded=0;orthogonalLoop=1;jettySize=auto;html=1;entryX=0.5;entryY=1;entryDx=0;entryDy=0;" edge="1" parent="1" source="ydtsIiDGhrV2X_qzVOJo-5" target="ydtsIiDGhrV2X_qzVOJo-4">
          <mxGeometry relative="1" as="geometry" />
        </mxCell>
        <mxCell id="ydtsIiDGhrV2X_qzVOJo-5" value="Power Supply" style="rounded=0;whiteSpace=wrap;html=1;" vertex="1" parent="1">
          <mxGeometry x="360" y="500" width="120" height="60" as="geometry" />
        </mxCell>
        <mxCell id="ydtsIiDGhrV2X_qzVOJo-9" value="7 &lt;i&gt;Segment Display&lt;/i&gt;" style="rounded=0;whiteSpace=wrap;html=1;" vertex="1" parent="1">
          <mxGeometry x="520" y="230" width="120" height="60" as="geometry" />
        </mxCell>
        <mxCell id="ydtsIiDGhrV2X_qzVOJo-14" style="edgeStyle=orthogonalEdgeStyle;rounded=0;orthogonalLoop=1;jettySize=auto;html=1;" edge="1" parent="1" source="ydtsIiDGhrV2X_qzVOJo-10" target="ydtsIiDGhrV2X_qzVOJo-13">
          <mxGeometry relative="1" as="geometry" />
        </mxCell>
        <mxCell id="ydtsIiDGhrV2X_qzVOJo-10" value="Relay" style="rounded=0;whiteSpace=wrap;html=1;" vertex="1" parent="1">
          <mxGeometry x="520" y="320" width="120" height="60" as="geometry" />
        </mxCell>
        <mxCell id="ydtsIiDGhrV2X_qzVOJo-13" value="Elemen Panas" style="rounded=0;whiteSpace=wrap;html=1;" vertex="1" parent="1">
          <mxGeometry x="660" y="320" width="120" height="60" as="geometry" />
        </mxCell>
        <mxCell id="ydtsIiDGhrV2X_qzVOJo-15" value="" style="rounded=0;whiteSpace=wrap;html=1;fillColor=none;dashed=1;" vertex="1" parent="1">
          <mxGeometry x="185" y="170" width="150" height="420" as="geometry" />
        </mxCell>
        <mxCell id="ydtsIiDGhrV2X_qzVOJo-16" value="" style="rounded=0;whiteSpace=wrap;html=1;fillColor=none;strokeColor=default;dashed=1;" vertex="1" parent="1">
          <mxGeometry x="345" y="170" width="150" height="420" as="geometry" />
        </mxCell>
        <mxCell id="ydtsIiDGhrV2X_qzVOJo-17" value="" style="rounded=0;whiteSpace=wrap;html=1;fillColor=none;strokeColor=default;dashed=1;" vertex="1" parent="1">
          <mxGeometry x="510" y="170" width="280" height="420" as="geometry" />
        </mxCell>
        <mxCell id="ydtsIiDGhrV2X_qzVOJo-18" value="&lt;b&gt;Masukkan&lt;/b&gt;" style="text;html=1;strokeColor=none;fillColor=none;align=center;verticalAlign=middle;whiteSpace=wrap;rounded=0;" vertex="1" parent="1">
          <mxGeometry x="230" y="180" width="60" height="30" as="geometry" />
        </mxCell>
        <mxCell id="ydtsIiDGhrV2X_qzVOJo-19" value="&lt;b&gt;Proses&lt;/b&gt;" style="text;html=1;strokeColor=none;fillColor=none;align=center;verticalAlign=middle;whiteSpace=wrap;rounded=0;" vertex="1" parent="1">
          <mxGeometry x="395" y="180" width="60" height="30" as="geometry" />
        </mxCell>
        <mxCell id="ydtsIiDGhrV2X_qzVOJo-20" value="&lt;b&gt;Luaran&lt;/b&gt;" style="text;html=1;strokeColor=none;fillColor=none;align=center;verticalAlign=middle;whiteSpace=wrap;rounded=0;" vertex="1" parent="1">
          <mxGeometry x="620" y="180" width="60" height="30" as="geometry" />
        </mxCell>
      </root>
    </mxGraphModel>
  </diagram>
</mxfile>
